<?xml version="1.0" encoding="UTF-8"?>
<svg id="Layer_2" data-name="Layer 2" xmlns="http://www.w3.org/2000/svg" viewBox="0 0 163.61 163.62">
  <defs>
    <style>
      .cls-1 {
        fill: #fff;
      }
    </style>
  </defs>
  <g id="Layer_1-2" data-name="Layer 1">
    <path class="cls-1" d="m159.83,107.81c-6.91,1.76-14.06,2.66-21.24,2.66-47.11,0-85.44-38.33-85.44-85.45,0-7.18.89-14.33,2.66-21.24.29-1.12-.08-2.29-.96-3.05-.88-.75-2.09-.94-3.16-.48C20.29,13.66,0,44.39,0,78.54c0,22.72,8.85,44.09,24.92,60.16,16.07,16.07,37.44,24.92,60.16,24.92,34.14,0,64.87-20.29,78.28-51.69.46-1.07.27-2.28-.48-3.16-.75-.88-1.92-1.25-3.05-.96Zm-32.42,37.5c-12.66,8.02-27.3,12.26-42.33,12.26-43.58,0-79.03-35.45-79.03-79.03,0-15.03,4.24-29.67,12.26-42.33,7.48-11.81,17.92-21.37,30.3-27.81-1,5.47-1.51,11.05-1.51,16.63,0,24.44,9.52,47.42,26.8,64.7,17.28,17.28,40.25,26.8,64.69,26.8,5.58,0,11.16-.51,16.63-1.51-6.44,12.39-16,22.82-27.81,30.3Z"/>
  </g>
</svg>