<?xml version="1.0" encoding="UTF-8"?>
<svg id="Layer_2" data-name="Layer 2" xmlns="http://www.w3.org/2000/svg" viewBox="0 0 163.6 111.68">
  <defs>
    <style>
      .cls-1 {
        fill: #fff;
      }
    </style>
  </defs>
  <g id="Layer_1-2" data-name="Layer 1">
    <g>
      <path class="cls-1" d="m46.55,3.03v12.35c0,1.67,1.36,3.03,3.03,3.03s3.03-1.36,3.03-3.03V3.03c0-1.67-1.36-3.03-3.03-3.03s-3.03,1.36-3.03,3.03Z"/>
      <path class="cls-1" d="m27.53,27.53c.57-.57.89-1.33.89-2.14s-.31-1.57-.89-2.14l-8.73-8.73c-1.18-1.18-3.1-1.18-4.28,0-1.18,1.18-1.18,3.1,0,4.28l8.73,8.73c.57.57,1.33.89,2.14.89s1.57-.31,2.14-.89Z"/>
      <path class="cls-1" d="m3.03,52.6h12.35c1.67,0,3.03-1.36,3.03-3.03s-1.36-3.03-3.03-3.03H3.03c-1.67,0-3.03,1.36-3.03,3.03s1.36,3.03,3.03,3.03Z"/>
      <path class="cls-1" d="m14.52,84.63c.57.57,1.33.89,2.14.89s1.57-.31,2.14-.89l8.73-8.73c.57-.57.89-1.33.89-2.14s-.31-1.57-.89-2.14c-1.18-1.18-3.1-1.18-4.28,0l-8.73,8.73c-1.18,1.18-1.18,3.1,0,4.28Z"/>
      <path class="cls-1" d="m80.35,14.52l-8.73,8.73c-.57.57-.89,1.33-.89,2.14s.31,1.57.89,2.14c.57.57,1.33.89,2.14.89s1.57-.31,2.14-.89l8.73-8.73c1.18-1.18,1.18-3.1,0-4.28-1.18-1.18-3.1-1.18-4.28,0Z"/>
      <path class="cls-1" d="m54.35,111.68h83.55c14.17,0,25.7-11.53,25.7-25.7,0-6.51-2.44-12.73-6.87-17.49-3.75-4.04-8.72-6.77-14.1-7.77-.63-9.45-4.72-18.25-11.59-24.89-7.17-6.94-16.61-10.75-26.56-10.75-6.44,0-12.85,1.66-18.52,4.81-4.95,2.74-9.24,6.56-12.52,11.11-3.58-9.99-13.04-16.76-23.86-16.76-13.98,0-25.35,11.37-25.35,25.35,0,7.97,3.82,15.51,10.12,20.26-3.68,4.56-5.7,10.26-5.7,16.14,0,14.17,11.53,25.7,25.7,25.7Zm14.32-63.86c1.52,0,3.01.23,4.45.68,1.36.43,2.81-.13,3.52-1.36,5.75-9.88,16.42-16.02,27.84-16.02,17.75,0,32.19,14.44,32.19,32.19v.07c0,1.57,1.23,2.9,2.79,3.02,10.15.79,18.1,9.39,18.1,19.59,0,10.84-8.82,19.65-19.65,19.65H54.35c-10.84,0-19.65-8.82-19.65-19.65,0-9.74,6.97-17.9,16.56-19.41,1.55-.24,2.65-1.61,2.55-3.18-.01-.19-.02-.42-.02-.69,0-8.2,6.67-14.88,14.88-14.88Zm-38.4,1.75c0-10.64,8.66-19.3,19.3-19.3,7.79,0,14.66,4.61,17.69,11.55-4.98.33-9.63,2.41-13.23,5.94-3.66,3.59-5.85,8.3-6.23,13.36-3.27.86-6.35,2.38-9.05,4.44-5.26-3.57-8.48-9.6-8.48-15.98Z"/>
    </g>
  </g>
</svg>