<?xml version="1.0" encoding="UTF-8"?>
<svg id="Layer_2" data-name="Layer 2" xmlns="http://www.w3.org/2000/svg" viewBox="0 0 163.61 154.58">
  <defs>
    <style>
      .cls-1 {
        fill: #fff;
      }
    </style>
  </defs>
  <g id="Layer_1-2" data-name="Layer 1">
    <g>
      <path class="cls-1" d="m159.83,51.64c-3.18.81-6.47,1.22-9.77,1.22-21.67,0-39.31-17.64-39.31-39.31,0-3.31.41-6.59,1.22-9.77.29-1.12-.08-2.29-.96-3.05-.88-.75-2.09-.94-3.16-.48-9.6,4.1-17.48,11.79-21.84,21.26-3.89-1.35-8.01-2.06-12.23-2.06-6.27,0-12.5,1.62-18.03,4.68-5.21,2.89-9.68,6.99-12.97,11.92-1.25-.24-2.52-.35-3.8-.35-5.36,0-10.43,2.07-14.28,5.83-3.57,3.49-5.7,8.07-6.09,12.99-4.84,1.29-9.26,4.05-12.55,7.86-3.92,4.54-6.08,10.35-6.08,16.36,0,13.82,11.24,25.06,25.06,25.06h5.9c1.67,0,3.03-1.36,3.03-3.03s-1.36-3.03-3.03-3.03h-5.9c-10.48,0-19.01-8.53-19.01-19.01,0-9.42,6.74-17.32,16.03-18.78,1.55-.24,2.65-1.61,2.55-3.18-.01-.18-.02-.4-.02-.66,0-7.93,6.45-14.37,14.37-14.37,1.47,0,2.91.22,4.29.65,1.36.43,2.81-.13,3.52-1.36,5.58-9.58,15.91-15.53,26.98-15.53,17.2,0,31.19,13.99,31.19,31.19v.07c0,1.57,1.23,2.89,2.79,3.02,9.82.76,17.51,9.09,17.51,18.95,0,10.48-8.53,19.01-19.01,19.01h-15.18c-1.67,0-3.03,1.36-3.03,3.03s1.36,3.03,3.03,3.03h15.18c13.08,0,23.86-10.08,24.97-22.88,14.21-2.3,26.44-11.83,32.13-25.15.46-1.07.27-2.28-.48-3.16-.75-.88-1.92-1.25-3.05-.96Zm-28.81,23.17c-.77-4.89-2.97-9.46-6.39-13.14-3.64-3.92-8.47-6.58-13.69-7.57-.63-9.19-4.62-17.74-11.3-24.19-2.45-2.37-5.18-4.36-8.1-5.95,2.91-6.28,7.58-11.62,13.42-15.36-.18,1.64-.27,3.3-.27,4.95,0,25.01,20.35,45.36,45.36,45.36,1.65,0,3.31-.09,4.96-.27-5.41,8.48-14.12,14.36-24,16.17Z"/>
      <path class="cls-1" d="m86.4,71.12c-.53-.95-1.55-1.54-2.64-1.54h-22.53c-1.09,0-2.1.59-2.63,1.54l-23.87,42.23c-.53.93-.52,2.09.02,3.01.54.93,1.54,1.5,2.61,1.5h15.57l-14.18,32.48c-.6,1.36-.09,2.99,1.17,3.78.48.3,1.03.46,1.6.46.89,0,1.73-.39,2.31-1.07l39.02-45.9c.76-.9.93-2.16.44-3.23-.49-1.07-1.57-1.76-2.75-1.76h-11.57l17.36-28.45c.57-.93.59-2.1.06-3.06Zm-25.38,32.95c-.57.93-.59,2.1-.06,3.06.53.95,1.55,1.55,2.64,1.55h10.41l-21.51,25.3,7.83-17.93c.41-.94.32-2.01-.24-2.87-.56-.86-1.51-1.37-2.53-1.37h-15.01l20.45-36.18h15.38l-17.36,28.45Z"/>
    </g>
  </g>
</svg>