<?xml version="1.0" encoding="UTF-8"?>
<svg id="Layer_2" data-name="Layer 2" xmlns="http://www.w3.org/2000/svg" viewBox="0 0 163.6 163.6">
  <defs>
    <style>
      .cls-1 {
        fill: #fff;
      }
    </style>
  </defs>
  <g id="Layer_1-2" data-name="Layer 1">
    <g>
      <path class="cls-1" d="m122.61,81.8c0-22.5-18.31-40.81-40.81-40.81s-40.81,18.31-40.81,40.81,18.31,40.81,40.81,40.81,40.81-18.31,40.81-40.81Zm-40.81,34.75c-19.16,0-34.76-15.59-34.76-34.75s15.59-34.76,34.76-34.76,34.75,15.59,34.75,34.76-15.59,34.75-34.75,34.75Z"/>
      <path class="cls-1" d="m78.78,3.03v20.9c0,1.67,1.36,3.03,3.03,3.03s3.03-1.36,3.03-3.03V3.03c0-1.67-1.36-3.03-3.03-3.03s-3.03,1.36-3.03,3.03Z"/>
      <path class="cls-1" d="m23.96,23.96c-.57.57-.89,1.33-.89,2.14s.31,1.57.89,2.14l14.78,14.78c.57.57,1.33.89,2.14.89s1.57-.31,2.14-.89c1.18-1.18,1.18-3.1,0-4.28l-14.78-14.78c-1.18-1.18-3.1-1.18-4.28,0Z"/>
      <path class="cls-1" d="m3.03,84.83h20.9c1.67,0,3.03-1.36,3.03-3.03s-1.36-3.03-3.03-3.03H3.03c-1.67,0-3.03,1.36-3.03,3.03s1.36,3.03,3.03,3.03Z"/>
      <path class="cls-1" d="m23.96,139.65c.57.57,1.33.89,2.14.89s1.57-.31,2.14-.89l14.78-14.78c.57-.57.89-1.33.89-2.14s-.31-1.57-.89-2.14c-1.18-1.18-3.1-1.18-4.28,0l-14.78,14.78c-1.18,1.18-1.18,3.1,0,4.28Z"/>
      <path class="cls-1" d="m78.78,139.68v20.9c0,1.67,1.36,3.03,3.03,3.03s3.03-1.36,3.03-3.03v-20.9c0-1.67-1.36-3.03-3.03-3.03s-3.03,1.36-3.03,3.03Z"/>
      <path class="cls-1" d="m135.37,139.65c.57.57,1.33.89,2.14.89s1.57-.31,2.14-.89c1.18-1.18,1.18-3.1,0-4.28l-14.78-14.78c-1.18-1.18-3.1-1.18-4.28,0-.57.57-.89,1.33-.89,2.14s.31,1.57.89,2.14l14.78,14.78Z"/>
      <path class="cls-1" d="m163.6,81.8c0-1.67-1.36-3.03-3.03-3.03h-20.9c-1.67,0-3.03,1.36-3.03,3.03s1.36,3.03,3.03,3.03h20.9c1.67,0,3.03-1.36,3.03-3.03Z"/>
      <path class="cls-1" d="m124.87,43.02l14.78-14.78c1.18-1.18,1.18-3.1,0-4.28-1.18-1.18-3.1-1.18-4.28,0l-14.78,14.78c-1.18,1.18-1.18,3.1,0,4.28.57.57,1.33.89,2.14.89s1.57-.31,2.14-.89Z"/>
    </g>
  </g>
</svg>