<?xml version="1.0" encoding="UTF-8"?>
<svg id="Layer_2" data-name="Layer 2" xmlns="http://www.w3.org/2000/svg" viewBox="0 0 163.6 140.85">
  <defs>
    <style>
      .cls-1 {
        fill: #fff;
      }
    </style>
  </defs>
  <g id="Layer_1-2" data-name="Layer 1">
    <path class="cls-1" d="m134.1,42.14c-6.52-6.28-15.08-9.74-24.11-9.74-5.84,0-11.65,1.5-16.8,4.35-4.84,2.67-9,6.47-12.07,11.03-1.13-.2-2.27-.31-3.43-.31-5.02,0-9.76,1.93-13.37,5.44-2.77,2.7-4.63,6.1-5.4,9.8-8.24-12.07-12.58-26.13-12.58-40.88,0-6.11.76-12.18,2.26-18.06.29-1.12-.08-2.29-.96-3.05-.88-.75-2.09-.94-3.16-.48C17.46,11.79,0,38.24,0,67.63c0,19.56,7.62,37.95,21.45,51.78,13.83,13.83,32.22,21.45,51.78,21.45,11.7,0,23.35-2.83,33.66-8.18,9.89-5.13,18.62-12.58,25.26-21.56h7.98c12.95,0,23.48-10.53,23.48-23.48,0-5.95-2.23-11.62-6.28-15.98-3.37-3.63-7.83-6.11-12.66-7.06-.63-8.53-4.36-16.47-10.57-22.46Zm-60.87,92.66c-37.04,0-67.18-30.13-67.18-67.18,0-12.7,3.56-25.08,10.3-35.8,6.2-9.86,14.84-17.91,25.08-23.41-.76,4.42-1.14,8.92-1.14,13.42,0,16.18,4.83,31.61,13.99,44.8-2.77,1.39-5.26,3.31-7.29,5.67-3.67,4.26-5.69,9.7-5.69,15.33,0,12.95,10.53,23.48,23.48,23.48h59.65c-12.7,14.91-31.5,23.69-51.2,23.69Zm84.33-47.17c0,9.61-7.82,17.43-17.43,17.43h-75.35c-9.61,0-17.43-7.82-17.43-17.43,0-8.64,6.18-15.87,14.69-17.21,1.55-.24,2.65-1.61,2.55-3.18-.01-.17-.02-.37-.02-.6,0-7.23,5.89-13.12,13.12-13.12,1.34,0,2.66.2,3.92.6,1.36.43,2.81-.13,3.52-1.36,5.14-8.82,14.66-14.3,24.85-14.3,15.84,0,28.73,12.89,28.73,28.73v.06c0,1.57,1.23,2.89,2.79,3.02,9,.7,16.05,8.33,16.05,17.37Z"/>
  </g>
</svg>