<?xml version="1.0" encoding="UTF-8"?>
<svg id="Layer_2" data-name="Layer 2" xmlns="http://www.w3.org/2000/svg" viewBox="0 0 163.6 88.17">
  <defs>
    <style>
      .cls-1 {
        fill: #fff;
      }
    </style>
  </defs>
  <g id="Layer_1-2" data-name="Layer 1">
    <path class="cls-1" d="m26.14,88.17h85.16c14.41,0,26.14-11.73,26.14-26.14,0-.2,0-.39,0-.59h7.89c10.08,0,18.28-8.2,18.28-18.28,0-4.32-1.56-8.52-4.39-11.84-2.56-3-6-5.09-9.78-5.97-1.29-13.63-12.76-24.15-26.58-24.15-7.51,0-14.68,3.2-19.71,8.69C96,3.51,86.86,0,77.24,0c-6.56,0-13.08,1.69-18.86,4.9-5.47,3.03-10.14,7.35-13.58,12.52-1.33-.26-2.69-.39-4.05-.39-5.6,0-10.89,2.16-14.89,6.09-3.73,3.66-5.95,8.46-6.33,13.61-5.09,1.33-9.74,4.22-13.19,8.23C2.25,49.7,0,55.77,0,62.03c0,14.41,11.73,26.14,26.14,26.14ZM122.86,7.27c11.39,0,20.65,9.26,20.65,20.65v.05c0,1.57,1.23,2.89,2.79,3.02,6.31.49,11.25,5.84,11.25,12.19,0,6.74-5.48,12.22-12.22,12.22h-8.73c-1.08-4.13-3.17-7.96-6.14-11.15-3.83-4.12-8.9-6.9-14.39-7.91-.54-8.13-3.58-15.78-8.72-22.04,3.9-4.42,9.57-7.01,15.5-7.01ZM22.99,42.19c1.55-.24,2.65-1.61,2.55-3.18-.01-.19-.02-.42-.02-.7,0-8.39,6.83-15.22,15.22-15.22,1.55,0,3.08.23,4.55.69,1.36.43,2.81-.13,3.52-1.36,5.87-10.09,16.77-16.36,28.43-16.36,18.12,0,32.86,14.74,32.86,32.87v.07c0,1.57,1.23,2.89,2.79,3.02,10.37.81,18.5,9.6,18.5,20.03,0,11.08-9.01,20.09-20.09,20.09H26.14c-11.08,0-20.09-9.01-20.09-20.09,0-9.96,7.12-18.3,16.93-19.84Z"/>
  </g>
</svg>