<?xml version="1.0" encoding="UTF-8"?>
<svg id="Layer_2" data-name="Layer 2" xmlns="http://www.w3.org/2000/svg" viewBox="0 0 163.6 167.98">
  <defs>
    <style>
      .cls-1 {
        fill: #fff;
      }
    </style>
  </defs>
  <g id="Layer_1-2" data-name="Layer 1">
    <g>
      <path class="cls-1" d="m30.74,104.52h102.12c16.95,0,30.74-13.79,30.74-30.74,0-7.79-2.92-15.22-8.22-20.92-4.61-4.97-10.75-8.27-17.38-9.39-.64-11.54-5.55-22.29-13.89-30.41C115.46,4.64,104.06,0,92.01,0c-7.8,0-15.56,2.02-22.42,5.86-6.55,3.65-12.13,8.86-16.2,15.1-1.68-.35-3.41-.53-5.14-.53-6.6,0-12.82,2.56-17.52,7.22-4.42,4.38-7.01,10.13-7.35,16.28-6.15,1.52-11.77,4.96-15.93,9.78-4.81,5.57-7.45,12.7-7.45,20.07,0,16.95,13.79,30.74,30.74,30.74Zm-3.88-55.13c1.55-.24,2.65-1.61,2.55-3.18-.02-.25-.02-.54-.02-.88,0-10.4,8.46-18.86,18.86-18.86,1.93,0,3.82.29,5.63.86,1.36.43,2.81-.13,3.52-1.36,7.15-12.29,20.41-19.92,34.61-19.92,22.06,0,40.01,17.95,40.01,40.01v.09c0,1.57,1.23,2.9,2.79,3.02,12.75.99,22.74,11.8,22.74,24.61,0,13.62-11.08,24.69-24.69,24.69H30.74c-13.62,0-24.69-11.08-24.69-24.69,0-12.24,8.75-22.49,20.81-24.39Z"/>
      <path class="cls-1" d="m59.87,109.76c-.71-.38-1.53-.45-2.31-.22-.77.24-1.4.76-1.78,1.48l-13.86,26.26c-.78,1.48-.21,3.31,1.26,4.09.43.23.92.35,1.41.35,1.13,0,2.15-.62,2.68-1.61l13.86-26.26c.78-1.48.21-3.31-1.26-4.09Z"/>
      <path class="cls-1" d="m71.54,136.02c-.72-.38-1.53-.45-2.31-.22-.77.24-1.4.76-1.78,1.48l-13.86,26.26c-.78,1.48-.21,3.31,1.26,4.09.43.23.92.35,1.41.35,1.13,0,2.15-.62,2.68-1.61l13.86-26.26c.78-1.48.21-3.31-1.26-4.09Z"/>
      <path class="cls-1" d="m89.1,143.91c1.13,0,2.15-.62,2.68-1.61l13.86-26.26c.78-1.48.21-3.31-1.26-4.09-.72-.38-1.53-.45-2.31-.22-.77.24-1.4.76-1.78,1.48l-13.86,26.26c-.78,1.48-.21,3.31,1.26,4.09.43.23.92.35,1.41.35Z"/>
    </g>
  </g>
</svg>