<?xml version="1.0" encoding="UTF-8"?>
<svg id="Layer_2" data-name="Layer 2" xmlns="http://www.w3.org/2000/svg" viewBox="0 0 163.61 143.4">
  <defs>
    <style>
      .cls-1 {
        fill: #fff;
      }
    </style>
  </defs>
  <g id="Layer_1-2" data-name="Layer 1">
    <g>
      <path class="cls-1" d="m159.83,52.71c-3.25.83-6.61,1.25-9.99,1.25-22.16,0-40.18-18.03-40.18-40.19,0-3.38.42-6.74,1.25-9.99.29-1.12-.08-2.29-.96-3.05-.88-.75-2.09-.94-3.16-.48-11.76,5.02-20.78,15.18-24.41,27.38-2.33-.44-4.72-.67-7.13-.67-6.39,0-12.75,1.65-18.38,4.77-5.32,2.95-9.88,7.14-13.23,12.17-1.28-.24-2.59-.37-3.91-.37-5.46,0-10.62,2.11-14.54,5.94-3.64,3.56-5.81,8.23-6.19,13.25-4.94,1.31-9.46,4.12-12.82,8.02-3.99,4.63-6.19,10.54-6.19,16.66,0,14.07,11.45,25.52,25.52,25.52h82.87c14.07,0,25.52-11.45,25.52-25.52,0-1.86-.2-3.69-.59-5.47,13.44-3.06,24.58-12.32,30.04-25.11.46-1.07.27-2.28-.49-3.16-.75-.88-1.92-1.25-3.05-.96Zm-51.44,54.16H25.52c-10.74,0-19.47-8.73-19.47-19.47,0-9.65,6.9-17.73,16.41-19.23,1.55-.24,2.65-1.61,2.55-3.18-.01-.19-.02-.41-.02-.68,0-8.12,6.61-14.73,14.73-14.73,1.5,0,2.99.23,4.4.67,1.36.43,2.81-.13,3.52-1.36,5.7-9.8,16.27-15.88,27.59-15.88,17.59,0,31.9,14.31,31.9,31.9v.07c0,1.57,1.23,2.89,2.79,3.02,10.05.78,17.93,9.31,17.93,19.41,0,10.74-8.73,19.47-19.47,19.47Zm22.93-30.69c-1.09-2.22-2.51-4.3-4.23-6.15-3.72-4-8.65-6.72-13.98-7.71-.63-9.38-4.69-18.11-11.51-24.69-3.89-3.76-8.45-6.59-13.39-8.39,2.56-8.52,8.15-15.87,15.68-20.64-.19,1.72-.29,3.45-.29,5.18,0,25.5,20.74,46.24,46.23,46.24,1.73,0,3.47-.1,5.2-.29-5.35,8.5-13.82,14.4-23.71,16.46Z"/>
      <path class="cls-1" d="m27.59,143.4c1.13,0,2.15-.62,2.68-1.61l11.25-21.31c.38-.71.45-1.53.21-2.31-.24-.77-.76-1.41-1.48-1.78-1.48-.78-3.31-.21-4.09,1.26l-11.25,21.31c-.78,1.48-.21,3.31,1.26,4.09.43.23.92.35,1.41.35Z"/>
      <path class="cls-1" d="m45.35,143.4c1.13,0,2.15-.62,2.68-1.61l11.25-21.31c.38-.71.45-1.53.21-2.31-.24-.77-.76-1.41-1.48-1.78-1.48-.78-3.31-.21-4.09,1.26l-11.25,21.31c-.78,1.48-.21,3.31,1.26,4.09.43.23.92.35,1.41.35Z"/>
      <path class="cls-1" d="m63.11,143.4c1.13,0,2.15-.62,2.68-1.61l11.25-21.31c.38-.71.45-1.53.21-2.31-.24-.77-.76-1.41-1.48-1.78-1.48-.78-3.31-.21-4.09,1.26l-11.25,21.31c-.78,1.48-.21,3.31,1.26,4.09.43.23.92.35,1.41.35Z"/>
      <path class="cls-1" d="m80.87,143.4c1.13,0,2.15-.62,2.68-1.61l11.25-21.31c.38-.71.45-1.53.21-2.31-.24-.77-.76-1.41-1.48-1.78-1.48-.78-3.31-.21-4.09,1.26l-11.25,21.31c-.78,1.48-.21,3.31,1.26,4.09.43.23.92.35,1.41.35Z"/>
    </g>
  </g>
</svg>