<?xml version="1.0" encoding="UTF-8"?>
<svg id="Layer_2" data-name="Layer 2" xmlns="http://www.w3.org/2000/svg" viewBox="0 0 163.6 155.47">
  <defs>
    <style>
      .cls-1 {
        fill: #fff;
      }
    </style>
  </defs>
  <g id="Layer_1-2" data-name="Layer 1">
    <g>
      <path class="cls-1" d="m53.41,15.59V3.03c0-1.67-1.36-3.03-3.03-3.03s-3.03,1.36-3.03,3.03v12.56c0,1.67,1.36,3.03,3.03,3.03s3.03-1.36,3.03-3.03Z"/>
      <path class="cls-1" d="m27.92,27.92c.57-.57.89-1.33.89-2.14s-.31-1.57-.89-2.14l-8.88-8.88c-.57-.57-1.33-.89-2.14-.89s-1.57.31-2.14.89c-.57.57-.89,1.33-.89,2.14s.31,1.57.89,2.14l8.88,8.88c.57.57,1.33.89,2.14.89s1.57-.31,2.14-.89Z"/>
      <path class="cls-1" d="m0,50.38c0,1.67,1.36,3.03,3.03,3.03h12.56c1.67,0,3.03-1.36,3.03-3.03s-1.36-3.03-3.03-3.03H3.03c-1.67,0-3.03,1.36-3.03,3.03Z"/>
      <path class="cls-1" d="m13.87,83.87c0,.81.31,1.57.89,2.14.57.57,1.33.89,2.14.89s1.57-.31,2.14-.89l8.88-8.88c.57-.57.89-1.33.89-2.14s-.31-1.57-.89-2.14c-.57-.57-1.33-.89-2.14-.89s-1.57.31-2.14.89l-8.88,8.88c-.57.57-.89,1.33-.89,2.14Z"/>
      <path class="cls-1" d="m83.87,13.87c-.81,0-1.57.31-2.14.89l-8.88,8.88c-.57.57-.89,1.33-.89,2.14s.31,1.57.89,2.14c.57.57,1.33.89,2.14.89s1.57-.31,2.14-.89l8.88-8.88c.57-.57.89-1.33.89-2.14s-.31-1.57-.89-2.14c-.57-.57-1.33-.89-2.14-.89Z"/>
      <path class="cls-1" d="m142.27,64.19c-.63-9.62-4.79-18.57-11.77-25.32-7.29-7.05-16.87-10.93-26.99-10.93-6.55,0-13.06,1.69-18.83,4.89-3.89,2.16-7.37,4.96-10.29,8.26-1.5-3.87-3.94-7.36-7.12-10.13-4.68-4.07-10.68-6.31-16.89-6.31-14.19,0-25.74,11.55-25.74,25.74,0,8.02,3.78,15.57,10.05,20.4-.69.64-1.34,1.31-1.95,2.03-4.08,4.73-6.33,10.78-6.33,17.04,0,14.39,11.71,26.1,26.1,26.1h6.17c1.67,0,3.03-1.36,3.03-3.03s-1.36-3.03-3.03-3.03h-6.17c-11.05,0-20.05-8.99-20.05-20.05,0-9.93,7.11-18.26,16.9-19.8,1.55-.24,2.65-1.61,2.55-3.18-.01-.2-.02-.43-.02-.71,0-8.38,6.81-15.19,15.19-15.19,1.55,0,3.08.23,4.54.69,1.36.43,2.81-.13,3.52-1.36,5.86-10.07,16.73-16.33,28.37-16.33,18.08,0,32.8,14.71,32.8,32.8v.07c0,1.57,1.23,2.89,2.79,3.02,10.35.8,18.46,9.58,18.46,19.98,0,11.05-8.99,20.05-20.05,20.05h-15.89c-1.67,0-3.03,1.36-3.03,3.03s1.36,3.03,3.03,3.03h15.89c14.39,0,26.1-11.71,26.1-26.1,0-6.61-2.48-12.92-6.98-17.76-3.82-4.11-8.88-6.89-14.36-7.9Zm-75.19-19.26c-5.59,0-10.87,2.16-14.87,6.08-3.72,3.65-5.94,8.44-6.32,13.59-2.1.55-4.13,1.37-6.03,2.43-5.68-3.6-9.17-9.9-9.17-16.64,0-10.86,8.83-19.69,19.69-19.69,8.85,0,16.6,6.02,18.95,14.35-.75-.08-1.5-.12-2.25-.12Z"/>
      <path class="cls-1" d="m64.46,85.15c-.21.78-.1,1.6.3,2.3.54.93,1.54,1.51,2.62,1.51.53,0,1.05-.14,1.51-.41l7.6-4.39v8.78c0,1.67,1.36,3.03,3.03,3.03s3.03-1.36,3.03-3.03v-8.78l7.6,4.39c.46.27.98.41,1.51.41,1.08,0,2.08-.58,2.62-1.51.83-1.44.34-3.3-1.11-4.13l-7.6-4.39,7.6-4.39c1.44-.83,1.94-2.69,1.11-4.13-.4-.7-1.06-1.2-1.84-1.41-.78-.21-1.6-.1-2.3.3l-7.6,4.39v-8.78c0-1.67-1.36-3.03-3.03-3.03s-3.03,1.36-3.03,3.03v8.78l-7.6-4.39c-.7-.4-1.52-.51-2.3-.3-.78.21-1.43.71-1.84,1.41-.4.7-.51,1.52-.3,2.3.21.78.71,1.43,1.41,1.84l7.6,4.39-7.6,4.39c-.7.4-1.2,1.06-1.41,1.84Z"/>
      <path class="cls-1" d="m58.08,146.94c.54.93,1.54,1.51,2.62,1.51.53,0,1.05-.14,1.51-.41l7.6-4.39v8.78c0,1.67,1.36,3.03,3.03,3.03s3.03-1.36,3.03-3.03v-8.78l7.6,4.39c.46.27.98.41,1.51.41,1.08,0,2.08-.58,2.62-1.51.4-.7.51-1.52.3-2.3-.21-.78-.71-1.43-1.41-1.84l-7.6-4.39,7.6-4.39c.7-.4,1.2-1.06,1.41-1.84.21-.78.1-1.6-.3-2.3-.4-.7-1.06-1.2-1.84-1.41-.78-.21-1.6-.1-2.3.3l-7.6,4.39v-8.78c0-1.67-1.36-3.03-3.03-3.03s-3.03,1.36-3.03,3.03v8.78l-7.6-4.39c-.7-.4-1.52-.51-2.3-.3-.78.21-1.43.71-1.84,1.41-.83,1.44-.34,3.3,1.11,4.13l7.6,4.39-7.6,4.39c-1.44.83-1.94,2.69-1.11,4.13Z"/>
      <path class="cls-1" d="m99.56,94.05c-1.67,0-3.03,1.36-3.03,3.03v8.78l-7.6-4.39c-.7-.4-1.52-.51-2.3-.3-.78.21-1.43.71-1.84,1.41-.83,1.44-.34,3.3,1.11,4.13l7.6,4.39-7.6,4.39c-1.44.83-1.94,2.69-1.11,4.13.54.93,1.54,1.51,2.62,1.51.53,0,1.05-.14,1.51-.41l7.6-4.39v8.78c0,1.67,1.36,3.03,3.03,3.03s3.03-1.36,3.03-3.03v-8.78l7.6,4.39c.46.27.98.41,1.51.41,1.08,0,2.08-.58,2.62-1.51.83-1.44.34-3.3-1.11-4.13l-7.6-4.39,7.6-4.39c1.44-.83,1.94-2.69,1.11-4.13-.4-.7-1.06-1.2-1.84-1.41-.78-.21-1.6-.1-2.3.3l-7.6,4.39v-8.78c0-1.67-1.36-3.03-3.03-3.03Z"/>
    </g>
  </g>
</svg>