<?xml version="1.0" encoding="UTF-8"?>
<svg id="Layer_2" data-name="Layer 2" xmlns="http://www.w3.org/2000/svg" viewBox="0 0 456.52 243.08">
  <defs>
    <style>
      .cls-1 {
        fill: #fff;
      }
    </style>
  </defs>
  <g id="Layer_1-2" data-name="Layer 1">
    <path class="cls-1" d="m25.09,194.15c32.48-27.71,64.66-42,96.95-41.97,32.26.03,64.22,14.36,96.3,41.93.02.02.03.03.05.04,38.73,33,77.67,48.96,116.4,48.93,38.72-.03,77.64-16.04,116.36-48.92,6.4-5.44,7.19-15.05,1.75-21.45-5.44-6.4-15.05-7.19-21.45-1.75-32.3,27.42-64.39,41.66-96.68,41.68-32.28.02-64.36-14.16-96.64-41.66-38.51-33.09-77.33-49.22-116.07-49.25-38.72-.03-77.77,16.02-116.72,49.25-6.39,5.45-7.15,15.06-1.7,21.45,5.45,6.39,15.06,7.15,21.45,1.7h0Zm0-60.87c32.48-27.71,64.66-42,96.95-41.97,32.26.03,64.22,14.36,96.3,41.93.02.01.03.03.05.04,38.73,33,77.67,48.96,116.4,48.93,38.72-.03,77.64-16.04,116.36-48.91,6.4-5.44,7.19-15.05,1.75-21.45-5.44-6.4-15.05-7.19-21.45-1.75-32.3,27.42-64.39,41.66-96.68,41.68-32.28.02-64.36-14.16-96.64-41.66-38.51-33.09-77.33-49.22-116.07-49.25-38.72-.03-77.77,16.02-116.72,49.25-6.39,5.45-7.15,15.06-1.7,21.45,5.45,6.39,15.06,7.15,21.45,1.7h0Zm0-60.87C57.57,44.7,89.75,30.41,122.04,30.43c32.26.03,64.22,14.36,96.3,41.93.02.01.03.03.05.04,38.73,33,77.67,48.96,116.4,48.93,38.72-.03,77.64-16.04,116.36-48.92,6.4-5.44,7.19-15.05,1.75-21.45-5.44-6.4-15.05-7.19-21.45-1.75-32.3,27.42-64.39,41.66-96.68,41.68-32.28.02-64.36-14.16-96.64-41.66C199.62,16.16,160.8.03,122.06,0,83.34-.03,44.29,16.02,5.34,49.25c-6.39,5.45-7.15,15.06-1.7,21.45,5.45,6.39,15.06,7.15,21.45,1.7h0Z"/>
  </g>
</svg>