<?xml version="1.0" encoding="UTF-8"?>
<svg id="Layer_2" data-name="Layer 2" xmlns="http://www.w3.org/2000/svg" viewBox="0 0 163.61 142.05">
  <defs>
    <style>
      .cls-1 {
        fill: #fff;
      }
    </style>
  </defs>
  <g id="Layer_1-2" data-name="Layer 1">
    <g>
      <path class="cls-1" d="m159.83,51.83c-3.19.81-6.49,1.23-9.81,1.23-21.76,0-39.46-17.71-39.46-39.47,0-3.32.41-6.62,1.23-9.81.29-1.12-.08-2.29-.96-3.05-.88-.75-2.09-.94-3.16-.48-9.57,4.09-17.45,11.75-21.84,21.17-3.76-1.25-7.72-1.9-11.78-1.9-6.29,0-12.55,1.62-18.09,4.69-5.23,2.9-9.71,7.02-13.02,11.96-1.25-.24-2.53-.36-3.82-.36-5.38,0-10.47,2.08-14.32,5.85-3.58,3.5-5.72,8.1-6.11,13.04-4.86,1.29-9.3,4.07-12.59,7.89-3.93,4.56-6.1,10.39-6.1,16.42,0,13.87,11.28,25.15,25.15,25.15h5.92c1.67,0,3.03-1.36,3.03-3.03s-1.36-3.03-3.03-3.03h-5.92c-10.53,0-19.09-8.57-19.09-19.09,0-9.46,6.77-17.39,16.09-18.86,1.55-.24,2.65-1.61,2.55-3.18-.01-.19-.02-.4-.02-.67,0-7.96,6.48-14.44,14.44-14.44,1.47,0,2.93.22,4.31.66,1.36.43,2.81-.13,3.52-1.36,5.6-9.62,15.98-15.59,27.09-15.59,17.27,0,31.32,14.05,31.32,31.32v.07c0,1.57,1.23,2.89,2.79,3.02,9.86.77,17.58,9.13,17.58,19.03,0,10.53-8.57,19.09-19.09,19.09h-15.23c-1.67,0-3.03,1.36-3.03,3.03s1.36,3.03,3.03,3.03h15.23c13.16,0,24-10.17,25.06-23.06,14-2.47,26.05-12,31.66-25.14.46-1.07.27-2.28-.49-3.16-.75-.88-1.92-1.25-3.05-.96Zm-28.37,23.15c-.79-4.87-2.99-9.42-6.4-13.09-3.66-3.94-8.5-6.6-13.74-7.59-.63-9.22-4.63-17.81-11.33-24.28-2.59-2.51-5.49-4.59-8.6-6.23,2.93-6.2,7.59-11.48,13.39-15.19-.18,1.66-.27,3.33-.27,4.99,0,25.1,20.42,45.52,45.52,45.52,1.67,0,3.34-.09,5-.27-5.33,8.34-13.87,14.21-23.55,16.14Z"/>
      <path class="cls-1" d="m36.49,74.47c-.21.78-.1,1.6.3,2.3.54.93,1.54,1.51,2.62,1.51.53,0,1.05-.14,1.51-.41l7.1-4.1v8.2c0,1.67,1.36,3.03,3.03,3.03s3.03-1.36,3.03-3.03v-8.2l7.1,4.1c.46.27.98.41,1.51.41,1.08,0,2.08-.58,2.62-1.51.83-1.44.34-3.3-1.11-4.13l-7.1-4.1,7.1-4.1c1.44-.83,1.94-2.69,1.11-4.13-.83-1.44-2.69-1.94-4.13-1.11l-7.1,4.1v-8.2c0-1.67-1.36-3.03-3.03-3.03s-3.03,1.36-3.03,3.03v8.2l-7.1-4.1c-.7-.4-1.52-.51-2.3-.3-.78.21-1.43.71-1.84,1.41-.83,1.44-.34,3.3,1.11,4.13l7.1,4.1-7.1,4.1c-.7.4-1.2,1.06-1.41,1.84Z"/>
      <path class="cls-1" d="m30.08,131.52c-.21.78-.1,1.6.3,2.3.54.93,1.54,1.51,2.62,1.51.53,0,1.05-.14,1.51-.41l7.1-4.1v8.2c0,1.67,1.36,3.03,3.03,3.03s3.03-1.36,3.03-3.03v-8.2l7.1,4.1c.46.27.98.41,1.51.41,1.08,0,2.08-.58,2.62-1.51.4-.7.51-1.52.3-2.3-.21-.78-.71-1.43-1.41-1.84l-7.1-4.1,7.1-4.1c.7-.4,1.2-1.06,1.41-1.84.21-.78.1-1.6-.3-2.3-.4-.7-1.06-1.2-1.84-1.41-.78-.21-1.6-.1-2.3.3l-7.1,4.1v-8.2c0-1.67-1.36-3.03-3.03-3.03s-3.03,1.36-3.03,3.03v8.2l-7.1-4.1c-.7-.4-1.52-.51-2.3-.3-.78.21-1.43.71-1.84,1.41-.4.7-.51,1.52-.3,2.3.21.78.71,1.43,1.41,1.84l7.1,4.1-7.1,4.1c-.7.4-1.2,1.06-1.41,1.84Z"/>
      <path class="cls-1" d="m70.26,82.91c-1.67,0-3.03,1.36-3.03,3.03v8.2l-7.1-4.1c-.7-.4-1.52-.51-2.3-.3-.78.21-1.43.71-1.84,1.41-.83,1.44-.34,3.3,1.11,4.13l7.1,4.1-7.1,4.1c-1.44.83-1.94,2.69-1.11,4.13.54.93,1.54,1.51,2.62,1.51.53,0,1.05-.14,1.51-.41l7.1-4.1v8.2c0,1.67,1.36,3.03,3.03,3.03s3.03-1.36,3.03-3.03v-8.2l7.1,4.1c.46.27.98.41,1.51.41,1.08,0,2.08-.58,2.62-1.51.83-1.44.34-3.3-1.11-4.13l-7.1-4.1,7.1-4.1c1.44-.83,1.94-2.69,1.11-4.13-.4-.7-1.06-1.2-1.84-1.41-.78-.21-1.6-.1-2.3.3l-7.1,4.1v-8.2c0-1.67-1.36-3.03-3.03-3.03Z"/>
    </g>
  </g>
</svg>